<?xml version="1.0" encoding="utf-8"?>
<!-- Generator: Adobe Illustrator 16.0.3, SVG Export Plug-In . SVG Version: 6.00 Build 0)  -->
<!DOCTYPE svg PUBLIC "-//W3C//DTD SVG 1.1//EN" "http://www.w3.org/Graphics/SVG/1.1/DTD/svg11.dtd">
<svg version="1.1" id="Layer_1" xmlns="http://www.w3.org/2000/svg" xmlns:xlink="http://www.w3.org/1999/xlink" x="0px" y="0px"
	 width="92.5px" height="58px" viewBox="0 0 92.5 58" enable-background="new 0 0 92.5 58" xml:space="preserve">
<g>
	<g>
		<path fill="#FFFFFF" d="M58.256,19.448c-1.352-1.104-2.725-1.85-4.14-2.233c-1.276-0.261-2.615-0.396-3.986-0.396H38.945v36.276
			h7.134V39.767h4.72c3.721-0.069,6.605-1.335,8.569-3.757c1.881-2.261,2.83-4.814,2.83-7.587c0-2.031-0.378-3.827-1.108-5.315
			C60.367,21.529,59.398,20.287,58.256,19.448z M55.066,28.282c0,1.146-0.367,2.162-1.104,3.093c-0.74,0.913-1.85,1.37-3.38,1.397
			h-4.504v-8.955l4.5-0.001c1.091,0,2.017,0.26,2.868,0.816c0.519,0.308,0.914,0.721,1.173,1.203
			C54.917,26.472,55.066,27.297,55.066,28.282z"/>
		<rect x="6.541" y="3.571" fill="#FFFFFF" width="55.937" height="7.46"/>
		<path fill="#FFFFFF" d="M25.284,16.858v23.1c-0.026,2.036-0.559,3.531-1.626,4.552c-0.688,0.71-1.272,1.132-2.805,1.368
			c-0.186-0.004-0.785,0.052-0.981,0.045c-2.568-0.081-3.438-0.673-4.33-1.59c-1.069-1.026-1.602-2.521-1.626-4.556v-23.1H6.778
			v23.666c0.031,3.876,1.308,7.011,3.77,9.294c2.541,2.474,4.377,3.341,7.422,3.464c0.166,0.004,4.419-0.003,4.419-0.003
			c2.716-0.367,4.167-1.243,6.26-3.282c2.464-2.282,3.74-5.416,3.771-9.293V16.858H25.284z"/>
	</g>
	<g>
		<path fill="#F76B6C" d="M58.139,54.881l-1.297-10.905l1.343-0.458l0.455,3.837c0.14-0.534,0.372-0.962,0.7-1.278
			c0.325-0.317,0.713-0.55,1.161-0.705c0.821-0.277,1.554-0.267,2.19,0.031c0.641,0.298,1.121,0.924,1.444,1.872
			c0.216,0.639,0.352,1.291,0.406,1.964c0.054,0.669,0.009,1.303-0.131,1.897c-0.145,0.594-0.395,1.12-0.751,1.574
			c-0.362,0.455-0.85,0.788-1.466,0.998c-0.557,0.188-1.1,0.213-1.629,0.077c-0.529-0.139-0.946-0.422-1.261-0.847l0.177,1.486
			L58.139,54.881z M59.19,51.451c0.112,0.329,0.263,0.596,0.453,0.792c0.188,0.197,0.402,0.34,0.637,0.425
			c0.233,0.087,0.479,0.125,0.731,0.118c0.251-0.007,0.501-0.053,0.745-0.135c0.485-0.166,0.863-0.47,1.13-0.914
			c0.267-0.448,0.365-0.947,0.297-1.5l-0.285-2.381c-0.014-0.139-0.044-0.273-0.086-0.399c-0.144-0.421-0.41-0.725-0.805-0.915
			c-0.392-0.188-0.872-0.188-1.443,0.006c-0.608,0.207-1.06,0.565-1.357,1.082c-0.297,0.513-0.4,1.132-0.312,1.856l0.145,1.217
			C59.072,50.98,59.121,51.231,59.19,51.451z"/>
		<path fill="#F76B6C" d="M66.403,48.91c-0.218-0.638-0.342-1.285-0.376-1.943c-0.032-0.656,0.038-1.271,0.21-1.845
			c0.17-0.574,0.45-1.081,0.835-1.518c0.387-0.438,0.887-0.761,1.501-0.97c0.478-0.163,0.924-0.231,1.34-0.206
			c0.414,0.026,0.792,0.126,1.131,0.299c0.34,0.177,0.63,0.416,0.872,0.724c0.242,0.305,0.43,0.658,0.569,1.057
			c0.067,0.2,0.122,0.41,0.163,0.63c0.042,0.218,0.076,0.536,0.101,0.95l-5.126,1.739l0.075,0.675
			c0.019,0.152,0.048,0.285,0.087,0.402c0.087,0.259,0.211,0.467,0.37,0.626c0.159,0.155,0.345,0.27,0.551,0.336
			c0.206,0.069,0.427,0.1,0.66,0.094c0.231-0.004,0.46-0.046,0.688-0.122c0.477-0.163,0.833-0.443,1.065-0.838
			c0.23-0.397,0.353-0.849,0.36-1.349l1.345-0.456c0.017,0.928-0.193,1.717-0.623,2.365c-0.433,0.65-1.056,1.111-1.875,1.39
			c-0.896,0.303-1.685,0.303-2.369-0.008C67.276,50.631,66.757,49.956,66.403,48.91z M67.491,46.675l3.74-1.271l-0.025-0.291
			c-0.021-0.16-0.055-0.308-0.101-0.438c-0.172-0.508-0.474-0.83-0.906-0.969c-0.433-0.138-0.893-0.126-1.379,0.04
			c-0.428,0.145-0.789,0.414-1.08,0.802c-0.292,0.391-0.398,0.894-0.316,1.513L67.491,46.675z"/>
		<path fill="#F76B6C" d="M75.699,48.925l-0.828-6.944l-1.284,0.436l-0.149-1.23l1.288-0.436l-0.323-2.731l1.341-0.457l0.323,2.731
			l1.755-0.593l0.146,1.229l-1.753,0.597l0.676,5.737l1.739-0.589l0.154,1.201L75.699,48.925z"/>
		<path fill="#F76B6C" d="M80.007,44.489c-0.175-0.516-0.297-1.1-0.369-1.749c-0.069-0.648-0.046-1.278,0.075-1.894
			c0.119-0.612,0.357-1.17,0.711-1.668c0.355-0.498,0.861-0.857,1.521-1.08c0.517-0.176,1.015-0.231,1.499-0.166
			c0.481,0.062,0.92,0.294,1.311,0.689l-0.147-1.224l1.343-0.457l0.975,8.172l-1.345,0.457l-0.132-1.103
			c-0.137,0.534-0.374,0.962-0.703,1.28s-0.705,0.549-1.124,0.69c-0.797,0.27-1.521,0.245-2.167-0.076
			C80.804,46.043,80.322,45.419,80.007,44.489z M81.341,44.337c0.142,0.419,0.413,0.724,0.81,0.909
			c0.4,0.188,0.863,0.193,1.391,0.014c0.583-0.197,1.024-0.553,1.33-1.067c0.305-0.513,0.412-1.133,0.322-1.861l-0.172-1.455
			c-0.025-0.27-0.077-0.518-0.156-0.746c-0.09-0.27-0.225-0.489-0.398-0.658c-0.177-0.173-0.37-0.297-0.583-0.374
			c-0.215-0.076-0.451-0.11-0.706-0.103c-0.257,0.006-0.509,0.054-0.758,0.139c-0.5,0.166-0.882,0.477-1.148,0.923
			c-0.27,0.447-0.368,0.949-0.299,1.508l0.28,2.37C81.271,44.084,81.299,44.22,81.341,44.337z"/>
	</g>
</g>
</svg>
